<svg width="800" height="600" xmlns="http://www.w3.org/2000/svg">
 <!-- Created with Method Draw - http://github.com/duopixel/Method-Draw/ -->
 <g>
  <title>background</title>
  <rect fill="#fff" id="canvas_background" height="602" width="802" y="-1" x="-1"/>
 </g>
 <g>
  <title>Layer 1</title>
  <path id="svg_1" d="m429.10769,218.98574c-10.89,-16.43338 -24.22874,-29.73362 -37.60163,-39.03175c-15.60389,9.53677 -34.60874,15.33804 -55.34842,15.33804c-20.75293,0 -39.78515,-5.81853 -55.36879,-15.33804c-13.37288,9.29812 -26.7115,22.59838 -37.64252,39.03175c-25.35133,38.13472 -28.1537,77.25689 -6.25795,87.40657c9.80858,4.56946 20.10019,1.15807 30.72495,-7.37947c-1.8706,8.65665 -2.97937,18.04558 -2.97937,27.87158c0,43.62966 20.31094,78.9712 45.34946,78.9712c15.08015,0 22.55572,-12.87402 26.14017,-32.57712c3.5846,19.7031 11.0532,32.57712 26.09971,32.57712c25.07227,0 45.38314,-35.34154 45.38314,-78.9712c0,-9.826 -1.08822,-19.21493 -2.99272,-27.87158c10.65873,8.53754 20.92976,11.94893 30.75866,7.37947c21.93002,-10.14969 19.09338,-49.27184 -6.26469,-87.40657zm-92.97039,-38.57167c42.13877,0 76.29857,-28.51317 76.29857,-63.6733s-34.1598,-63.67309 -76.29857,-63.67309c-42.13199,0 -76.3191,28.50723 -76.3191,63.67309s34.18709,63.6733 76.3191,63.6733zm52.12416,-130.69557c22.01823,6.76643 8.76777,-10.7911 8.76777,-22.78547s13.59057,-26.66249 -8.76777,-20.69637c-23.46713,6.27803 -42.49248,9.7294 -42.49248,21.74077s19.02538,14.52057 42.49248,21.74106zm-51.98128,-8.54306c13.94421,0 6.15585,-5.89222 6.15585,-13.15248c0,-7.26585 7.80875,-13.14113 -6.15585,-13.14113s-6.66611,5.89226 -6.66611,13.14113c0,7.27722 -7.27831,13.15248 6.66611,13.15248zm-52.28064,8.54306c23.46714,-7.20359 42.49233,-9.73527 42.49233,-21.74106s-19.02519,-15.46274 -42.49233,-21.74077c-22.35837,-5.98313 -8.77468,8.6905 -8.77468,20.69637s-13.264,29.54049 8.77468,22.78547z" stroke="#000" fill="#e5e539"/>
  <path id="svg_3" d="m672.13223,222.9934c-10.89818,-17.92767 -24.23132,-32.44198 -37.60541,-42.59531c-15.60546,10.40722 -34.61208,16.74445 -55.33298,16.74445c-20.76159,0 -39.79554,-6.34958 -55.37349,-16.74445c-13.37406,10.15333 -26.72083,24.66765 -37.64575,42.59531c-25.36057,41.6229 -28.14961,84.31738 -6.24519,95.38749c9.80973,4.98673 20.09508,1.26991 30.72102,-8.05337c-1.86393,9.45322 -2.95244,19.69928 -2.95244,30.41638c0,47.61332 20.31294,86.18209 45.34642,86.18209c15.08852,0 22.55779,-14.04376 26.14942,-35.54581c3.57838,21.50206 11.04759,35.54581 26.08143,35.54581c25.07462,0 45.38775,-38.56877 45.38775,-86.18209c0,-10.71711 -1.08886,-20.96316 -2.99331,-30.41638c10.6529,9.32328 20.92473,13.0401 30.76169,8.05337c21.89094,-11.07011 19.06072,-53.7646 -6.29915,-95.38749l-0.00002,0zm-92.96517,-42.09358c42.12179,0 76.28477,-31.11016 76.28477,-69.48687s-34.16297,-69.48696 -76.28477,-69.48696c-42.13612,0 -76.32608,31.11635 -76.32608,69.48696s34.18996,69.48687 76.32608,69.48687z" stroke="#000" fill="#e5e539"/>
 </g>
</svg>